<svg width="20" height="17" viewBox="0 0 20 17" fill="none" xmlns="http://www.w3.org/2000/svg">
  <path
    d="M5.47171 14.0267C6.7519 15.103 8.39573 15.75 10.1886 15.75C14.2729 15.75 17.5839 12.3921 17.5839 8.25C17.5839 7.71652 17.5289 7.19605 17.4245 6.69408M5.47171 14.0267C3.83546 12.651 2.79326 10.5739 2.79326 8.25C2.79326 4.10786 6.10425 0.75 10.1886 0.75C13.7468 0.75 16.7182 3.29862 17.4245 6.69408M5.47171 14.0267C7.27943 13.6076 9.43001 12.7339 11.5991 11.4638C14.1231 9.98599 16.1761 8.2617 17.4245 6.69408M5.47171 14.0267C3.22616 14.5473 1.50967 14.3665 0.943983 13.3729C0.361312 12.3493 1.12578 10.6846 2.79312 8.91467M17.4245 6.69408C18.5817 5.24101 19.0476 3.92255 18.5564 3.05976C18.0583 2.18485 16.6681 1.94005 14.8102 2.24933"
    stroke="white"
    stroke-width="1.5"
    stroke-linecap="round"
    stroke-linejoin="round"
  />
</svg>

