<svg width="20" height="20" viewBox="0 0 20 20" fill="none" xmlns="http://www.w3.org/2000/svg">
  <path
    d="M0.75 7.15C0.75 4.90979 0.75 3.78968 1.18597 2.93404C1.56947 2.18139 2.18139 1.56947 2.93404 1.18597C3.78968 0.75 4.90979 0.75 7.15 0.75H12.35C14.5902 0.75 15.7103 0.75 16.566 1.18597C17.3186 1.56947 17.9305 2.18139 18.314 2.93404C18.75 3.78968 18.75 4.90979 18.75 7.15V12.35C18.75 14.5902 18.75 15.7103 18.314 16.566C17.9305 17.3186 17.3186 17.9305 16.566 18.314C15.7103 18.75 14.5902 18.75 12.35 18.75H7.15C4.90979 18.75 3.78968 18.75 2.93404 18.314C2.18139 17.9305 1.56947 17.3186 1.18597 16.566C0.75 15.7103 0.75 14.5902 0.75 12.35V7.15Z"
    stroke="white"
    stroke-width="1.5"
    stroke-linecap="round"
    stroke-linejoin="round"
  />
</svg>

